<svg width="100" height="100" viewBox="0 0 100 100" fill="none" xmlns="http://www.w3.org/2000/svg">
<path d="M14.4792 42.9166C13.698 42.7604 12.6563 42.6041 11.6667 42.3437C10.4688 42.0312 10.2084 41.3541 10.8855 40.3645C11.9792 38.8541 13.1251 37.4479 14.1667 36.0937C12.8126 34.7916 11.4584 33.5416 10.1042 32.2395C11.7709 30.2604 13.9063 30.677 15.9376 30.3645C15.4167 28.75 14.8959 27.1875 14.3751 25.625C13.8022 23.8541 14.0626 23.3333 15.8855 23.3333C17.2397 23.3333 18.5938 23.4895 19.948 23.5937C20.3126 21.5104 20.7292 19.427 21.1459 17.0312C22.2397 17.9166 23.0209 18.3854 23.698 19.0625C24.3751 19.7395 24.8959 20.5208 25.6251 21.4583C26.198 20.052 26.7188 18.75 27.2397 17.5C27.7084 16.3541 28.1772 15.2083 28.7501 14.1666C29.2709 13.125 30.1042 12.9166 31.0417 13.6979C31.6667 14.2187 32.3438 14.7916 33.073 15.4687C33.9584 14.1145 34.8438 12.7604 35.6772 11.4583C36.823 9.73954 37.448 9.79163 38.3855 11.6145C38.9584 12.7604 39.4792 13.9062 40.1563 15.3125C41.6147 13.8541 42.8647 12.5 44.2709 11.25C44.7917 10.7812 45.4688 10.4687 46.0938 10.1041C46.4584 10.8854 46.8751 11.6145 47.1355 12.4479C47.2917 13.0729 47.1876 13.75 47.1876 14.6875C48.9063 13.75 50.4167 12.9166 51.9272 12.0833C53.8022 11.0416 54.3751 11.302 54.7397 13.4375C54.948 14.5833 55.1042 15.7291 55.2605 17.0833C57.6563 15.4687 59.8438 13.9583 62.1876 12.3437C63.6459 14.7395 61.4584 17.1354 62.3959 19.4791C64.1667 19.0104 65.8334 18.4895 67.5522 18.125C68.8022 17.8645 70.3126 17.2916 71.2501 18.5937C72.1355 19.8437 70.8855 20.8333 70.3647 21.927C70.2605 22.0833 70.2084 22.2395 70.0001 22.7604C71.7188 22.7604 73.2292 22.7083 74.7917 22.7604C75.8334 22.8125 76.8751 22.9687 77.8647 23.2291C79.5313 23.6979 79.8959 24.8958 78.7501 26.1979C78.2292 26.7708 77.6043 27.2916 76.8751 27.9687C78.5418 28.6458 80.1043 29.2708 81.6668 29.8437C83.5938 30.5208 84.6355 31.25 82.7084 33.3333C82.5522 33.4895 82.448 33.75 82.2397 34.1145C83.5417 34.6354 84.7397 35.052 85.9376 35.5729C87.9688 36.4062 88.1772 37.3958 86.5626 38.9062C85.8855 39.5833 85.1563 40.1562 84.323 40.8333C84.8959 41.1979 85.4688 41.5104 85.9897 41.875C87.6043 43.0208 87.5001 44.427 85.6251 45.2083C84.4272 45.7291 83.1251 46.0416 81.8751 46.4062C80.1042 46.927 78.3334 47.3958 76.4063 47.9166C78.8542 50.1041 78.698 52.8125 78.2813 55.625C78.073 56.8229 77.9167 58.0729 77.8126 59.2708C77.5522 61.927 75.8855 63.2291 73.2813 62.7604C72.6042 62.6562 71.9272 62.4479 71.0938 62.2916C70.9376 62.7083 70.8334 63.0729 70.7292 63.4375C68.1772 71.25 64.8959 78.8021 60.8334 85.9896C58.5417 90.0521 54.7917 91.9271 50.1042 91.9271C46.0938 91.9791 42.1355 91.5625 38.1772 90.5208C29.948 88.3333 24.7917 83.125 23.2292 74.7395C22.2917 69.8437 21.823 64.8437 21.198 59.8958C21.0417 58.75 20.7292 58.125 19.5313 58.0729C18.9063 58.0208 18.3334 57.8645 17.7084 57.7083C15.7292 57.1354 14.6355 55.7291 14.5834 53.6458C14.4792 50.1041 14.4792 46.6145 14.4792 42.9166ZM48.8022 88.0729C52.3438 90.1041 53.9584 90.1041 56.823 87.3437C58.6459 85.5729 60.3126 83.4375 61.4063 81.1458C63.5417 76.8229 65.3647 72.2916 67.1355 67.7604C70.573 58.9583 71.8751 49.7916 71.6667 40.3645C71.5626 35.8333 69.6355 32.0312 66.0938 29.1666C56.4063 21.1458 45.6251 19.7395 34.0105 24.2187C28.2813 26.3541 23.7501 30.1041 22.3438 36.4583C21.6667 39.5833 21.5105 42.9166 21.4584 46.1458C21.4584 49.3229 21.9272 52.4479 22.1355 55.625C22.6042 62.6562 23.4376 69.6354 25.3126 76.4583C26.3542 80.3125 28.1251 83.6979 31.823 85.4687C36.4063 87.6562 41.1459 89.5312 46.3542 89.6354C47.6042 89.7396 48.6459 89.7396 48.8022 88.0729ZM20.7292 56.0416C20.4167 52.2916 20.1042 48.802 19.7917 45.2604C19.6876 44.2708 19.0626 44.0104 18.1772 44.0625C17.0313 44.1666 16.2501 45.1041 16.198 46.4583C16.198 48.4375 16.198 50.4166 16.198 52.4479C16.198 54.6354 16.6147 55.2083 18.698 55.677C19.323 55.7812 19.8959 55.8854 20.7292 56.0416ZM73.5417 49.2187C73.3334 50.8333 73.1251 52.2916 72.8647 53.802C72.5522 55.3125 72.1355 56.8229 71.823 58.3333C71.7188 58.8541 71.6147 59.7916 71.823 59.8958C72.6042 60.2604 73.5417 60.5729 74.323 60.4687C74.8438 60.3645 75.6251 59.5833 75.7292 59.0625C76.1459 56.875 76.4063 54.6875 76.5626 52.4479C76.7188 50.4166 75.7813 49.5312 73.5417 49.2187Z" fill="black"/>
<path d="M40.6251 64.1667C41.3543 64.5312 41.7709 64.9479 42.2397 64.9479C44.2709 65 46.3543 65 48.3855 65C48.3855 64.8438 48.4376 64.6875 48.4376 64.5313C48.1772 64.4271 47.9688 64.2708 47.7084 64.1667C45.7293 63.3854 45.7293 63.125 46.198 61.0938C46.5626 59.4792 46.6147 57.7604 46.6668 56.0937C46.7709 53.75 46.7188 51.3542 46.7709 49.0104C46.7709 48.4896 47.0834 48.0208 47.2397 47.5C47.3959 47.5 47.5522 47.4479 47.7084 47.4479C47.9688 48.1771 48.3855 48.9583 48.4376 49.6875C48.5418 53.0208 48.4897 56.3021 48.4897 59.6354C48.4897 60.4167 48.2813 61.1979 48.1251 62.0833C49.1668 62.4479 50.573 62.5 50.5209 64.2188C50.4688 65.7813 49.8438 66.6146 48.2813 66.7708C46.1459 66.9792 43.9584 67.0833 41.7709 67.0833C40.0001 67.0833 39.2188 66.4063 38.9584 64.8958C38.6459 63.2292 39.323 62.0313 40.8334 61.3542C41.0938 61.25 41.3543 61.1458 41.9272 60.8333C41.9272 56.9792 41.8751 52.9688 41.9793 48.9583C41.9793 48.2813 42.448 47.5521 42.6563 46.875C42.8647 46.875 43.0209 46.9271 43.2293 46.9271C43.3855 47.6562 43.5938 48.3333 43.5938 49.0625C43.5938 53.1771 43.5418 57.2917 43.5418 61.4063C43.5418 62.5521 43.4897 63.6458 41.823 63.4375C41.6147 63.4375 41.3022 63.8021 40.6251 64.1667Z" fill="black"/>
<path d="M54.0104 34.6875C56.9792 35.4167 60 35.9375 62.8646 36.875C64.8958 37.5521 66.7708 38.6979 68.5417 39.8438C69.0104 40.1042 68.9583 41.1458 69.1667 41.8229C68.6458 41.9792 68.0729 42.3438 67.5521 42.2396C63.0729 41.5104 58.6458 40.625 54.1146 40.9375C53.0729 40.9896 52.1354 40.7292 51.8229 39.5313C51.3021 37.5 51.6146 35.7813 52.7083 35.1042C53.1771 34.9479 53.5937 34.8438 54.0104 34.6875Z" fill="black"/>
<path d="M41.198 39.8438C36.3021 39.3229 31.875 38.8542 27.448 38.3854C26.5625 38.2813 25.3125 36.875 25.6771 36.3542C26.0938 35.8333 26.9271 35.3125 27.5521 35.3125C31.3021 35.1563 35.1042 35.3646 38.8021 34.3229C40.0521 33.9583 41.0938 34.5833 41.875 35.5729C42.7605 36.7188 42.7605 37.9688 42.2917 39.1667C42.0834 39.5833 41.3542 39.7396 41.198 39.8438Z" fill="black"/>
<path d="M59.5313 44.375C62.1355 44.2708 64.6355 44.5833 66.3022 46.9792C67.2917 48.3333 66.9792 49.9479 65.4688 50.625C61.3022 52.3958 56.7709 51.0937 53.6459 47.7083C52.9167 46.9271 53.5417 46.0937 54.1147 45.7812C55.2605 45.1562 56.5626 44.7396 57.8647 44.375C58.3334 44.2187 58.9584 44.375 59.5313 44.375ZM62.8126 46.5625C62.8126 47.6042 62.8126 48.3333 62.8126 49.2708C63.7501 49.0104 64.4792 48.75 65.6251 48.4375C64.5313 47.6562 63.698 47.1354 62.8126 46.5625ZM55.3647 46.8229C56.4584 47.6042 57.1876 48.1771 58.1772 48.9062C58.1772 47.8646 58.1772 47.1354 58.1772 46.25C57.2917 46.4583 56.5105 46.6146 55.3647 46.8229Z" fill="black"/>
<path d="M37.6042 45.7812C36.3542 45.1041 35.1562 44.375 33.75 43.5937C33.8542 44.2187 33.9062 44.7916 34.0104 45.2604C34.1667 45.3125 34.2708 45.3646 34.3229 45.4166C34.8958 45.4687 35.5208 45.5729 36.0937 45.625C35.8333 46.1979 35.7292 46.875 35.3125 47.2396C33.3854 49.0625 30.2083 49.1666 28.0208 47.5521C27.1354 46.875 26.1979 46.25 25.4167 45.4166C25.1562 45.1041 25.1042 44.2187 25.3646 43.8541C26.3021 42.4479 27.7083 41.7708 29.3229 41.4062C31.875 40.8854 34.2187 41.3021 36.25 42.8646C37.0312 43.4375 37.4479 44.4791 38.0208 45.3125C37.9167 45.4687 37.7604 45.625 37.6042 45.7812ZM27.3958 44.4271C28.0208 45.1041 28.5417 45.6771 29.2708 46.4583C29.2708 45.2604 29.2708 44.3229 29.2708 43.1771C28.5937 43.6458 28.0729 43.9583 27.3958 44.4271Z" fill="black"/>
<path d="M35.0001 71.6146C35.4167 71.6667 35.9376 71.5625 36.3022 71.7709C40.3126 73.9063 44.3751 73.4896 48.4897 72.2917C49.7397 71.9271 51.0417 71.198 52.7084 72.448C51.9792 72.9167 51.4584 73.5417 50.8334 73.698C48.4376 74.375 46.0417 75.2605 43.5938 75.4167C40.9376 75.573 38.1772 75.4688 35.7813 73.9063C34.8959 73.3334 34.6876 72.7084 35.0001 71.6146Z" fill="black"/>
<path d="M54.4792 73.2292C53.5937 71.9792 52.7083 70.7813 51.875 69.5833C52.4479 68.6979 53.0208 68.5417 53.8021 69.1146C55.1563 70.1042 55.4687 71.6667 54.4792 73.2292Z" fill="black"/>
<path d="M42.6042 86.9791C42.4479 88.5937 41.4063 87.9687 40.625 88.125C40.6771 86.5104 41.7188 87.1354 42.6042 86.9791Z" fill="black"/>
</svg>
